<?xml version="1.0" encoding="utf-8"?>
<!-- Generator: Adobe Illustrator 26.0.1, SVG Export Plug-In . SVG Version: 6.00 Build 0)  -->
<svg version="1.1" id="Слой_1" xmlns="http://www.w3.org/2000/svg" xmlns:xlink="http://www.w3.org/1999/xlink" x="0px" y="0px"
	 viewBox="0 0 500 350" style="enable-background:new 0 0 500 350;" xml:space="preserve">
<style type="text/css">
	.st0{fill:#70869E;stroke:#333E59;stroke-width:3;stroke-linejoin:round;stroke-miterlimit:10;}
	.st1{fill:none;stroke:#333E59;stroke-width:5;stroke-miterlimit:10;}
	.st2{fill:none;stroke:#70869E;stroke-width:5;stroke-linecap:round;stroke-miterlimit:10;}
	.st3{fill:#FFFFFF;}
	.st4{fill:#5A7B9E;}
	.st5{fill:#333E59;}
	.st6{fill:#70869E;}
	.st7{fill:none;stroke:#333E59;stroke-width:2;stroke-miterlimit:10;}
	.st8{fill:none;stroke:#333E59;stroke-width:3;stroke-linecap:round;stroke-miterlimit:10;}
	.st9{display:none;}
	.st10{display:inline;fill:#FFFFFF;}
	.st11{font-family:'MyriadPro-Bold';}
	.st12{font-size:23.4971px;}
	.st13{letter-spacing:9;}
	.st14{letter-spacing:5;}
	.st15{letter-spacing:11;}
	.st16{letter-spacing:10;}
	.st17{opacity:0.25;fill:#93A3AD;}
</style>
<image style="display:none;overflow:visible;" width="505" height="361" xlink:href="../../../pngtree-water-meter-counter-equipment-flat-png-image_4690104.png"  transform="matrix(1 0 0 1 -3.9662 -366.5207)">
</image>
<rect x="57.5" y="121.6" class="st0" width="385.8" height="99.7"/>
<g>
	<line class="st1" x1="59.6" y1="121.6" x2="59.6" y2="221.3"/>
	<line class="st1" x1="69.2" y1="121.6" x2="69.2" y2="221.3"/>
	<line class="st1" x1="78.7" y1="121.6" x2="78.7" y2="221.3"/>
</g>
<g>
	<line class="st2" x1="64.4" y1="115.8" x2="64.4" y2="226.2"/>
	<line class="st2" x1="73.9" y1="115.8" x2="73.9" y2="226.2"/>
	<line class="st2" x1="83.5" y1="115.8" x2="83.5" y2="226.2"/>
</g>
<g>
	<line class="st1" x1="423.7" y1="121.6" x2="423.7" y2="221.3"/>
	<line class="st1" x1="433.2" y1="121.6" x2="433.2" y2="221.3"/>
	<line class="st1" x1="442.8" y1="121.6" x2="442.8" y2="221.3"/>
</g>
<g>
	<line class="st2" x1="418.9" y1="115.8" x2="418.9" y2="226.2"/>
	<line class="st2" x1="428.4" y1="115.8" x2="428.4" y2="226.2"/>
	<line class="st2" x1="438" y1="115.8" x2="438" y2="226.2"/>
</g>
<g>
	<circle class="st3" cx="250.4" cy="171.5" r="120.8"/>
	<path class="st4" d="M250.4,58.2c62.6,0,113.3,50.7,113.3,113.3S313,284.8,250.4,284.8S137.1,234,137.1,171.5
		S187.8,58.2,250.4,58.2 M250.4,43.2c-34.3,0-66.5,13.3-90.7,37.6s-37.6,56.5-37.6,90.7s13.3,66.5,37.6,90.7s56.5,37.6,90.7,37.6
		s66.5-13.3,90.7-37.6s37.6-56.5,37.6-90.7s-13.3-66.5-37.6-90.7S284.7,43.2,250.4,43.2L250.4,43.2z"/>
</g>
<g>
	<g>
		<path class="st5" d="M167.1,188.5h-15.6c-1.9,0-3.4-1.5-3.4-3.4v-27.2c0-1.9,1.5-3.4,3.4-3.4h15.6c1.9,0,3.4,1.5,3.4,3.4v27.2
			C170.5,187,169,188.5,167.1,188.5z"/>
	</g>
	<g>
		<path class="st5" d="M193.2,188.5h-15.6c-1.9,0-3.4-1.5-3.4-3.4v-27.2c0-1.9,1.5-3.4,3.4-3.4h15.6c1.9,0,3.4,1.5,3.4,3.4v27.2
			C196.5,187,195,188.5,193.2,188.5z"/>
	</g>
	<g>
		<path class="st5" d="M219.2,188.5h-15.6c-1.9,0-3.4-1.5-3.4-3.4v-27.2c0-1.9,1.5-3.4,3.4-3.4h15.6c1.9,0,3.4,1.5,3.4,3.4v27.2
			C222.6,187,221,188.5,219.2,188.5z"/>
	</g>
	<g>
		<path class="st5" d="M245.2,188.5h-15.6c-1.9,0-3.4-1.5-3.4-3.4v-27.2c0-1.9,1.5-3.4,3.4-3.4h15.6c1.9,0,3.4,1.5,3.4,3.4v27.2
			C248.6,187,247.1,188.5,245.2,188.5z"/>
	</g>
	<g>
		<path class="st5" d="M271.2,188.5h-15.6c-1.9,0-3.4-1.5-3.4-3.4v-27.2c0-1.9,1.5-3.4,3.4-3.4h15.6c1.9,0,3.4,1.5,3.4,3.4v27.2
			C274.6,187,273.1,188.5,271.2,188.5z"/>
	</g>
	<g>
		<path class="st6" d="M297.2,188.5h-15.6c-1.9,0-3.4-1.5-3.4-3.4v-27.2c0-1.9,1.5-3.4,3.4-3.4h15.6c1.9,0,3.4,1.5,3.4,3.4v27.2
			C300.6,187,299.1,188.5,297.2,188.5z"/>
	</g>
	<g>
		<path class="st6" d="M323.2,188.5h-15.6c-1.9,0-3.4-1.5-3.4-3.4v-27.2c0-1.9,1.5-3.4,3.4-3.4h15.6c1.9,0,3.4,1.5,3.4,3.4v27.2
			C326.6,187,325.1,188.5,323.2,188.5z"/>
	</g>
	<g>
		<path class="st6" d="M349.2,188.5h-15.6c-1.9,0-3.4-1.5-3.4-3.4v-27.2c0-1.9,1.5-3.4,3.4-3.4h15.6c1.9,0,3.4,1.5,3.4,3.4v27.2
			C352.6,187,351.1,188.5,349.2,188.5z"/>
	</g>
</g>
<g>
	<line class="st7" x1="313.9" y1="206.9" x2="286.5" y2="243.5"/>
	<line class="st7" x1="285.6" y1="207.5" x2="313.1" y2="245"/>
	<line class="st7" x1="299.3" y1="203" x2="299.3" y2="249"/>
	<line class="st7" x1="321.6" y1="233.9" x2="277.6" y2="219.1"/>
	<line class="st7" x1="320.7" y1="219.2" x2="278.5" y2="233.6"/>
	<circle class="st7" cx="299.6" cy="226.2" r="23.4"/>
	<circle class="st3" cx="299.6" cy="226.2" r="19.2"/>
	<circle class="st6" cx="299.6" cy="226.2" r="6"/>
	<polygon class="st6" points="300.6,224.7 297.5,223 302.9,216.4 308.4,209.9 306.1,218.1 303.8,226.3 	"/>
</g>
<g>
	<line class="st8" x1="173.7" y1="212.2" x2="249.1" y2="212.2"/>
	<line class="st8" x1="173.7" y1="219.2" x2="249.1" y2="219.2"/>
	<line class="st8" x1="173.7" y1="226.2" x2="249.1" y2="226.2"/>
	<line class="st8" x1="173.7" y1="233.1" x2="249.1" y2="233.1"/>
	<line class="st8" x1="173.7" y1="240.1" x2="249.1" y2="240.1"/>
</g>
<g>
	<line class="st8" x1="250.7" y1="113.2" x2="250.7" y2="137.6"/>
	<line class="st8" x1="240" y1="119.1" x2="260.8" y2="131.3"/>
	<line class="st8" x1="241" y1="131.9" x2="260.2" y2="119.1"/>
	<circle class="st5" cx="250.7" cy="125.4" r="6.6"/>
</g>
<text transform="matrix(1 0 0 1 150.6332 180.6103)" class="st9"><tspan x="0" y="0" class="st10 st11 st12 st13">NO</tspan><tspan x="51.9" y="0" class="st10 st11 st12 st14">   </tspan><tspan x="83.7" y="0" class="st10 st11 st12 st15">I</tspan><tspan x="102.2" y="0" class="st10 st11 st12 st13">M</tspan><tspan x="131.4" y="0" class="st10 st11 st12 st16">AG</tspan><tspan x="184" y="0" class="st10 st11 st12 st13">E</tspan></text>
<rect class="st17" width="500" height="350"/>
</svg>
